#!OML:ASF X:\für Bonn\!DataBase\2005_08_12_Daniel\c3d\Daniel.ASF
:FULLY-SPECIFIED
:DEGREES
1
root 16.0247 16.6932 0.251292 158.263 -103.648 -166.195
lowerback 11.2866 -4.58071 -7.86929
upperback 4.02751 -7.24014 -4.26939
thorax -1.66355 -3.71436 0.811846
lowerneck 2.76637 3.45354 -1.62746
upperneck 13.8553 4.08946 1.70587
head 3.9573 1.83992 0.938436
rclavicle -6.77856e-014 1.11319e-014
rhumerus -45.8172 -4.16706 -88.478
rradius 26.7237
rwrist 15.4513
rhand -16.3266 12.0423
rfingers 7.12502
rthumb 9.8851 -17.7056
lclavicle -6.77856e-014 1.11319e-014
lhumerus -36.4148 37.5497 64.0315
lradius 23.8509
lwrist -17.8707
lhand -18.8594 -8.05298
lfingers 7.12502
lthumb 7.4409 21.7962
rfemur -23.9235 -18.3434 10.4924
rtibia 77.1124
rfoot -8.30141 7.89326
rtoes -11.4518
lfemur -7.70775 -7.0544 -27.8646
ltibia 48.8854
lfoot -33.7301 -4.39664
ltoes -11.1079
2
root 15.9129 16.692 0.255923 158.406 -103.676 -166.412
lowerback 11.2004 -4.72456 -7.89204
upperback 4.05257 -7.41832 -4.22491
thorax -1.56909 -3.80667 0.877011
lowerneck 2.94996 3.56193 -1.64378
upperneck 13.6678 4.24462 1.61417
head 3.85412 1.91359 0.906591
rclavicle 2.22639e-014 3.81667e-014
rhumerus -46.1888 -4.2941 -88.3249
rradius 26.5615
rwrist 15.7091
rhand -16.2891 12.0702
rfingers 7.12502
rthumb 9.92128 -17.676
lclavicle 2.22639e-014 3.81667e-014
lhumerus -35.5102 36.6085 65.2079
lradius 24.5914
lwrist -16.5381
lhand -18.9496 -8.3165
lfingers 7.12502
lthumb 7.35376 21.5357
rfemur -24.6732 -17.9555 10.8259
rtibia 76.1463
rfoot -8.72161 7.97827
rtoes -11.1882
lfemur -6.99058 -7.30202 -27.9028
ltibia 48.6005
lfoot -34.0745 -4.13884
ltoes -11.1583
3
root 15.801 16.693 0.261517 158.599 -103.697 -166.679
lowerback 11.119 -4.86218 -7.86359
upperback 4.07995 -7.58359 -4.18562
thorax -1.48284 -3.8921 0.907937
lowerneck 3.12568 3.65454 -1.67449
upperneck 13.4794 4.37672 1.53956
head 3.75251 1.97625 0.882351
rclavicle 2.78795e-014 -1.90833e-014
rhumerus -46.5482 -4.41755 -88.1912
rradius 26.3975
rwrist 15.9165
rhand -16.2029 12.0702
rfingers 7.12502
rthumb 10.0044 -17.6721
lclavicle 2.78795e-014 -1.90833e-014
lhumerus -34.6549 35.5182 66.3924
lradius 25.447
lwrist -15.1093
lhand -19.1242 -8.60098
lfingers 7.12502
lthumb 7.1853 21.257
rfemur -25.3662 -17.5519 11.1608
rtibia 75.0483
rfoot -9.09911 7.98428
rtoes -11.0531
lfemur -6.25334 -7.57908 -27.9447
ltibia 48.2742
lfoot -34.3989 -3.82875
ltoes -11.232
4
root 15.6882 16.6944 0.26664 158.757 -103.719 -166.872
lowerback 10.9906 -4.99671 -7.82888
upperback 4.10748 -7.73978 -4.16082
thorax -1.37423 -3.97381 0.914177
lowerneck 3.28247 3.74115 -1.67409
upperneck 13.2748 4.50242 1.45984
head 3.65023 2.03798 0.851016
rclavicle 2.88238e-014 -1.11319e-014
rhumerus -46.9098 -4.59311 -88.0648
rradius 26.2253
rwrist 16.181
rhand -16.1283 12.0722
rfingers 7.12502
rthumb 10.0764 -17.6666
lclavicle 2.88238e-014 -1.11319e-014
lhumerus -33.8426 34.4523 67.48
lradius 26.3457
lwrist -13.7772
lhand -19.2684 -8.87222
lfingers 7.12502
lthumb 7.04609 20.9905
rfemur -26.0387 -17.1173 11.4596
rtibia 73.8344
rfoot -9.48944 7.94598
rtoes -10.7634
lfemur -5.53021 -7.84663 -28.0033
ltibia 47.9087
lfoot -34.7059 -3.524
ltoes -11.2899
5
root 15.5745 16.6979 0.272642 158.978 -103.731 -167.112
lowerback 10.8553 -5.13564 -7.76416
upperback 4.13103 -7.89807 -4.13205
thorax -1.26955 -4.05597 0.907533
lowerneck 3.36777 3.82591 -1.67497
upperneck 13.115 4.62593 1.38648
head 3.57758 2.09875 0.824422
rclavicle -2.41523e-014 -4.77083e-015
rhumerus -47.258 -4.79068 -87.9181
rradius 26.0552
rwrist 16.4943
rhand -15.9882 12.1056
rfingers 7.12502
rthumb 10.2115 -17.6266
lclavicle -2.41523e-014 -4.77083e-015
lhumerus -33.0885 33.417 68.5009
lradius 27.3157
lwrist -12.4671
lhand -19.3484 -9.15228
lfingers 7.12502
lthumb 6.96881 20.713
rfemur -26.6674 -16.6363 11.7586
rtibia 72.5047
rfoot -9.85385 7.82594
rtoes -10.7184
lfemur -4.79754 -8.15214 -28.0611
ltibia 47.5056
lfoot -34.9877 -3.19126
ltoes -11.284
6
root 15.4602 16.7007 0.277961 159.102 -103.738 -167.23
lowerback 10.7065 -5.2692 -7.72797
upperback 4.1436 -8.05148 -4.10109
thorax -1.16519 -4.13551 0.916263
lowerneck 3.46659 3.9066 -1.65133
upperneck 12.9328 4.74804 1.27284
head 3.4966 2.1591 0.779719
rclavicle -5.24792e-014 6.36111e-015
rhumerus -47.606 -4.90552 -87.8282
rradius 25.8883
rwrist 16.6766
rhand -15.8767 12.1122
rfingers 7.12502
rthumb 10.3191 -17.6146
lclavicle -5.24792e-014 6.36111e-015
lhumerus -32.3778 32.379 69.4718
lradius 28.3162
lwrist -11.1059
lhand -19.4173 -9.39857
lfingers 7.12502
lthumb 6.90232 20.4689
rfemur -27.2634 -16.1147 12.0109
rtibia 71.0868
rfoot -10.0623 7.63686
rtoes -10.5639
lfemur -4.06441 -8.52194 -28.177
ltibia 47.0731
lfoot -35.2601 -2.77623
ltoes -11.2743
7
root 15.3451 16.7041 0.282553 159.245 -103.748 -167.343
lowerback 10.5524 -5.40188 -7.68168
upperback 4.13918 -8.20307 -4.06953
thorax -1.07719 -4.21284 0.919966
lowerneck 3.56407 3.9803 -1.63066
upperneck 12.7446 4.8605 1.16179
head 3.41428 2.21499 0.736155
rclavicle -4.32854e-014 1.11319e-014
rhumerus -47.9554 -5.05389 -87.7186
rradius 25.6914
rwrist 16.9328
rhand -15.7601 12.1385
rfingers 7.12502
rthumb 10.4316 -17.5827
lclavicle -4.32854e-014 1.11319e-014
lhumerus -31.7372 31.3516 70.3721
lradius 29.3723
lwrist -9.87338
lhand -19.4292 -9.53643
lfingers 7.12502
lthumb 6.89082 20.3314
rfemur -27.8325 -15.5769 12.2414
rtibia 69.585
rfoot -10.1807 7.40668
rtoes -10.48
lfemur -3.33237 -8.96075 -28.3244
ltibia 46.6149
lfoot -35.5284 -2.27885
ltoes -11.2807
8
root 15.2292 16.7074 0.286307 159.33 -103.754 -167.388
lowerback 10.3873 -5.5353 -7.64187
upperback 4.14418 -8.35578 -4.05266
thorax -0.974634 -4.29167 0.909469
lowerneck 3.56437 4.05549 -1.58625
upperneck 12.6141 4.97659 1.05354
head 3.37104 2.27366 0.693103
rclavicle -7.66812e-014 -3.18055e-015
rhumerus -48.2719 -5.29341 -87.5893
rradius 25.4597
rwrist 17.2902
rhand -15.6577 12.2074
rfingers 7.12502
rthumb 10.5304 -17.5088
lclavicle -7.66812e-014 -3.18055e-015
lhumerus -31.1086 30.3443 71.2094
lradius 30.4469
lwrist -8.6516
lhand -19.4286 -9.58271
lfingers 7.12502
lthumb 6.89145 20.2851
rfemur -28.3615 -15.0206 12.4338
rtibia 68.025
rfoot -10.3482 7.1293
rtoes -10.6316
lfemur -2.58917 -9.42237 -28.497
ltibia 46.1308
lfoot -35.7864 -1.76579
ltoes -11.2736
9
root 15.1123 16.7098 0.288351 159.436 -103.759 -167.432
lowerback 10.2201 -5.66565 -7.62835
upperback 4.12683 -8.50649 -4.00753
thorax -0.886255 -4.36834 0.941961
lowerneck 3.59439 4.13423 -1.56745
upperneck 12.4711 5.09678 0.938775
head 3.31777 2.33303 0.651403
rclavicle -5.81445e-015 3.97569e-014
rhumerus -48.6139 -5.43842 -87.4848
rradius 25.246
rwrist 17.5462
rhand -15.5652 12.2571
rfingers 7.12502
rthumb 10.6195 -17.4545
lclavicle -5.81445e-015 3.97569e-014
lhumerus -30.5751 29.2994 72.0299
lradius 31.6105
lwrist -7.42042
lhand -19.383 -9.49186
lfingers 7.12502
lthumb 6.93543 20.3745
rfemur -28.8578 -14.4233 12.6087
rtibia 66.4088
rfoot -10.5605 6.78059
rtoes -10.6901
lfemur -1.86071 -9.8779 -28.6637
ltibia 45.6299
lfoot -36.0207 -1.26261
ltoes -11.2659
10
root 14.9934 16.7124 0.289586 159.435 -103.77 -167.356
lowerback 10.0245 -5.78415 -7.61047
upperback 4.11658 -8.63986 -3.99973
thorax -0.782449 -4.43723 0.928055
lowerneck 3.61911 4.19322 -1.488
upperneck 12.3089 5.1929 0.810877
head 3.26148 2.3835 0.594782
rclavicle 7.50412e-015 -6.2816e-014
rhumerus -48.9313 -5.78494 -87.3112
rradius 24.9422
rwrist 17.9963
rhand -15.5076 12.3842
rfingers 7.12502
rthumb 10.6752 -17.3246
lclavicle 7.50412e-015 -6.2816e-014
lhumerus -30.0568 28.2755 72.7623
lradius 32.7593
lwrist -6.32965
lhand -19.2673 -9.31183
lfingers 7.12502
lthumb 7.04716 20.5509
rfemur -29.3291 -13.8138 12.7245
rtibia 64.7579
rfoot -10.8356 6.33549
rtoes -10.7372
lfemur -1.12851 -10.2013 -28.8125
ltibia 45.0908
lfoot -36.2424 -0.861005
ltoes -11.3042
